Coordinates
version=1
nRows=20
nColumns=38
inDegrees=no

Units are S.I. units (second, meters, Newtons, ...)
If the header above contains a line with 'inDegrees', this indicates whether rotational values are in degrees (yes) or radians (no).

endheader
time	pelvis_tilt	pelvis_list	pelvis_rotation	pelvis_tx	pelvis_ty	pelvis_tz	hip_flexion_r	hip_adduction_r	hip_rotation_r	knee_angle_r	ankle_angle_r	subtalar_angle_r	mtp_angle_r	hip_flexion_l	hip_adduction_l	hip_rotation_l	knee_angle_l	ankle_angle_l	subtalar_angle_l	mtp_angle_l	lumbar_extension	lumbar_bending	lumbar_rotation	arm_flex_r	arm_add_r	arm_rot_r	elbow_flex_r	pro_sup_r	wrist_flex_r	wrist_dev_r	arm_flex_l	arm_add_l	arm_rot_l	elbow_flex_l	pro_sup_l	wrist_flex_l	wrist_dev_l
1.72	0.592316	1.42885	-2.11357	0.680307	-0.214366	0.962247	0.231003	-0.207546	-0.0974743	1.26907	-0.0885812	0	0	0.0451849	0.065979	-0.257498	0.378578	0.150405	0	0	-0.171116	-0.0998935	-0.0300301	-0.122374	-0.134154	-0.0225815	0.538514	1.25593	0	0	-0.175363	-0.297737	0.407196	0.668932	0.733573	0	0
1.73	0.56242	1.42807	-2.07548	0.682063	-0.22345	0.963429	0.244027	-0.206865	-0.107209	1.25584	-0.0770292	0	0	0.0224181	0.0652928	-0.251462	0.362052	0.15388	0	0	-0.176962	-0.0951955	-0.0406994	-0.130219	-0.132423	-0.028341	0.545307	1.25984	0	0	-0.164861	-0.299235	0.404901	0.673532	0.737654	0	0
1.74	0.533236	1.42759	-2.03767	0.683837	-0.232415	0.964416	0.256528	-0.206806	-0.118481	1.23989	-0.0657286	0	0	0.0011228	0.0640043	-0.244321	0.347007	0.157354	0	0	-0.182473	-0.0900619	-0.0517168	-0.137103	-0.130699	-0.0335425	0.550102	1.26323	0	0	-0.153675	-0.300476	0.403228	0.677624	0.743391	0	0
1.75	0.502135	1.42717	-1.99788	0.685558	-0.241285	0.965242	0.268277	-0.206938	-0.130907	1.22153	-0.0550216	0	0	-0.0186872	0.06166	-0.236795	0.334226	0.16123	0	0	-0.188109	-0.0843642	-0.0627433	-0.142951	-0.129003	-0.0378849	0.553165	1.26598	0	0	-0.142021	-0.301701	0.402191	0.681686	0.752401	0	0
1.76	0.468827	1.42622	-1.95612	0.687201	-0.250078	0.965973	0.278496	-0.207287	-0.14427	1.2005	-0.0437589	0	0	-0.038069	0.0587199	-0.228371	0.322828	0.165274	0	0	-0.19458	-0.0783246	-0.0734136	-0.147841	-0.12728	-0.041596	0.554967	1.26779	0	0	-0.129685	-0.302993	0.402844	0.684205	0.759545	0	0
1.77	0.434555	1.42503	-1.91378	0.688758	-0.258838	0.966582	0.28741	-0.207525	-0.158024	1.17676	-0.0324109	0	0	-0.0568195	0.0551756	-0.219954	0.312649	0.169683	0	0	-0.201114	-0.072085	-0.0835034	-0.15185	-0.125652	-0.0440397	0.555407	1.26743	0	0	-0.116381	-0.304093	0.405909	0.684105	0.763625	0	0
1.78	0.40431	1.4242	-1.87677	0.690173	-0.267562	0.966975	0.296637	-0.207976	-0.171101	1.15115	-0.0213007	0	0	-0.0743469	0.0517325	-0.212885	0.303252	0.174259	0	0	-0.206721	-0.0662764	-0.0920197	-0.155297	-0.12406	-0.0458493	0.553946	1.26689	0	0	-0.102792	-0.305302	0.409261	0.685663	0.768761	0	0
1.79	0.377498	1.42348	-1.84401	0.691488	-0.276228	0.967183	0.305715	-0.208829	-0.184004	1.12375	-0.0105262	0	0	-0.0912578	0.0487168	-0.205761	0.294117	0.178497	0	0	-0.211924	-0.0609343	-0.0995772	-0.157761	-0.12253	-0.0469251	0.550146	1.26783	0	0	-0.0890008	-0.306085	0.411321	0.687461	0.776393	0	0
1.8	0.3513	1.42246	-1.81314	0.692662	-0.284848	0.967257	0.314168	-0.209129	-0.195845	1.09458	-0.000909294	0	0	-0.108212	0.0458921	-0.198911	0.28511	0.182581	0	0	-0.217335	-0.0557718	-0.105661	-0.159399	-0.12092	-0.0481262	0.545004	1.27071	0	0	-0.0742723	-0.306477	0.41451	0.687858	0.783952	0	0
1.81	0.32472	1.42143	-1.78313	0.693661	-0.293481	0.967195	0.322012	-0.208643	-0.207172	1.06353	0.00722918	0	0	-0.125029	0.0429675	-0.192263	0.276347	0.186905	0	0	-0.222497	-0.0506494	-0.110204	-0.160359	-0.119351	-0.0491017	0.538402	1.27322	0	0	-0.0585956	-0.306793	0.420491	0.686512	0.78987	0	0
1.82	0.296923	1.42044	-1.75225	0.694562	-0.302146	0.96703	0.328781	-0.207565	-0.219234	1.03045	0.0134174	0	0	-0.141603	0.0394833	-0.185569	0.268099	0.191768	0	0	-0.227409	-0.0452555	-0.11418	-0.160557	-0.117981	-0.0491402	0.530298	1.27455	0	0	-0.0427636	-0.307362	0.42946	0.684311	0.792436	0	0
1.83	0.270788	1.4195	-1.72322	0.695395	-0.310829	0.966746	0.334702	-0.206566	-0.232099	0.995798	0.0191628	0	0	-0.157666	0.0358691	-0.179191	0.260575	0.196893	0	0	-0.232157	-0.0399402	-0.117833	-0.160272	-0.116671	-0.0485201	0.521529	1.27461	0	0	-0.0268812	-0.307645	0.438201	0.681965	0.794299	0	0
1.84	0.246168	1.41812	-1.69658	0.696133	-0.319502	0.966359	0.339406	-0.205457	-0.245003	0.959632	0.0241153	0	0	-0.174096	0.0325422	-0.173518	0.252932	0.201813	0	0	-0.237319	-0.0348414	-0.120718	-0.159388	-0.11519	-0.0488983	0.512493	1.27486	0	0	-0.0114918	-0.307093	0.444092	0.679757	0.798296	0	0
1.85	0.222504	1.41663	-1.67158	0.69675	-0.328196	0.965862	0.343218	-0.204104	-0.258061	0.921973	0.0281833	0	0	-0.190305	0.0291838	-0.169218	0.245762	0.206917	0	0	-0.242479	-0.0298734	-0.122773	-0.157969	-0.113798	-0.048863	0.50275	1.2749	0	0	0.00378403	-0.305874	0.448587	0.676797	0.804518	0	0
1.86	0.198393	1.41522	-1.6465	0.697279	-0.336952	0.96526	0.345949	-0.201956	-0.271105	0.882255	0.0314495	0	0	-0.206047	0.0253104	-0.166707	0.239408	0.212771	0	0	-0.247435	-0.0247281	-0.124431	-0.15613	-0.112667	-0.0474442	0.492475	1.27394	0	0	0.0188436	-0.304015	0.45187	0.673904	0.810031	0	0
1.87	0.175789	1.41408	-1.62313	0.69773	-0.345782	0.964547	0.348083	-0.199656	-0.284817	0.84115	0.0343923	0	0	-0.221239	0.0212676	-0.165765	0.233626	0.218959	0	0	-0.251812	-0.0197475	-0.126024	-0.154086	-0.111644	-0.0452893	0.48203	1.27281	0	0	0.0331167	-0.302113	0.455312	0.670665	0.813915	0	0
1.88	0.15008	1.41158	-1.59695	0.698096	-0.354751	0.963883	0.346895	-0.196262	-0.300788	0.797657	0.0377833	0	0	-0.238931	0.0167838	-0.164171	0.226048	0.224375	0	0	-0.257296	-0.0142099	-0.127086	-0.151633	-0.110848	-0.0424772	0.471014	1.27023	0	0	0.047269	-0.299044	0.456241	0.666198	0.823316	0	0
1.89	0.129485	1.41066	-1.57621	0.698336	-0.363773	0.962944	0.347349	-0.192792	-0.316178	0.754271	0.0417412	0	0	-0.254168	0.0126775	-0.163511	0.220115	0.230681	0	0	-0.260796	-0.00956722	-0.128111	-0.148948	-0.10986	-0.0393154	0.459624	1.26864	0	0	0.0605538	-0.296906	0.459003	0.663532	0.826978	0	0
1.9	0.107935	1.40962	-1.5544	0.698542	-0.372843	0.961934	0.346496	-0.188433	-0.332293	0.70941	0.0461955	0	0	-0.269857	0.00846736	-0.162197	0.2133	0.236409	0	0	-0.264477	-0.0044842	-0.129459	-0.145838	-0.109247	-0.0345163	0.448337	1.26574	0	0	0.0728434	-0.293795	0.457943	0.660545	0.834915	0	0
1.91	0.0940806	1.41053	-1.54072	0.698625	-0.381995	0.960606	0.348262	-0.184976	-0.347346	0.666382	0.0529257	0	0	-0.282256	0.00542377	-0.162713	0.208878	0.242817	0	0	-0.265746	-0.000907491	-0.130227	-0.144342	-0.108135	-0.0324798	0.440063	1.26476	0	0	0.0839054	-0.291254	0.457458	0.659376	0.838162	0	0
